<?xml version="1.0" encoding="utf-8"?>
<!-- Generator: Adobe Illustrator 24.3.0, SVG Export Plug-In . SVG Version: 6.00 Build 0)  -->
<svg version="1.1" id="Слой_1" xmlns="http://www.w3.org/2000/svg" xmlns:xlink="http://www.w3.org/1999/xlink" x="0px" y="0px"
	 viewBox="0 0 132 57" style="enable-background:new 0 0 132 57;" xml:space="preserve">
<style type="text/css">
	.st0{fill:#689F38;}
	.st1{fill:none;stroke:#689F38;stroke-width:5;stroke-miterlimit:10;}
</style>
<g>
	<g>
		<path class="st0" d="M18.7,15.8c2-0.3,4.9-0.6,8.1-0.6c4,0,6.8,0.6,8.8,2.1c1.6,1.3,2.5,3.2,2.5,5.6c0,3.4-2.5,5.8-4.8,6.6v0.1
			c1.9,0.8,2.9,2.5,3.6,5c0.8,3,1.7,6.6,2.2,7.6h-6.3c-0.4-0.8-1.1-3-1.9-6.3c-0.8-3.4-1.9-4.3-4.4-4.3h-1.8v10.6h-6.1V15.8z
			 M24.7,27.4h2.4c3,0,4.8-1.5,4.8-3.9c0-2.5-1.7-3.7-4.5-3.8c-1.5,0-2.3,0.1-2.8,0.2V27.4z"/>
		<path class="st0" d="M47.5,34.6c0.2,2.5,2.7,3.7,5.5,3.7c2.1,0,3.8-0.3,5.4-0.8l0.8,4.1c-2,0.8-4.5,1.2-7.1,1.2
			c-6.7,0-10.5-3.9-10.5-10c0-5,3.1-10.5,9.9-10.5c6.4,0,8.8,4.9,8.8,9.8c0,1.1-0.1,2-0.2,2.4L47.5,34.6L47.5,34.6z M54.6,30.4
			c0-1.5-0.7-4-3.4-4c-2.6,0-3.6,2.4-3.8,4H54.6z"/>
		<path class="st0" d="M64.3,42.4c0.1-1.3,0.2-3.6,0.2-5.8V14h6.1v11.1h0.1c1.2-1.7,3.2-2.8,5.9-2.8c4.7,0,8.2,3.9,8.1,9.9
			c0,7-4.5,10.6-9,10.6c-2.3,0-4.5-0.8-5.9-3.2h-0.1l-0.3,2.7H64.3z M70.6,34.1c0,0.4,0,0.8,0.1,1.1c0.4,1.6,1.8,2.9,3.6,2.9
			c2.6,0,4.2-2,4.2-5.5c0-3-1.4-5.5-4.2-5.5c-1.7,0-3.2,1.2-3.6,3c-0.1,0.3-0.1,0.7-0.1,1.1L70.6,34.1L70.6,34.1z"/>
		<path class="st0" d="M95.2,17.4c0,1.7-1.2,3-3.3,3c-1.9,0-3.2-1.4-3.2-3c0-1.7,1.3-3,3.2-3C94,14.4,95.2,15.7,95.2,17.4z
			 M88.9,42.4V22.9h6.1v19.6L88.9,42.4L88.9,42.4z"/>
		<path class="st0" d="M100.4,37.1c1.1,0.7,3.5,1.5,5.2,1.5c1.8,0,2.6-0.6,2.6-1.6c0-1-0.6-1.5-2.9-2.3c-4.1-1.3-5.6-3.5-5.6-5.8
			c0-3.7,3.1-6.4,8-6.4c2.3,0,4.3,0.5,5.5,1.1l-1.1,4.2c-0.9-0.5-2.6-1.1-4.3-1.1c-1.5,0-2.3,0.6-2.3,1.6c0,0.9,0.8,1.4,3.2,2.3
			c3.7,1.3,5.3,3.2,5.3,6c0,3.7-2.9,6.3-8.5,6.3c-2.6,0-4.9-0.6-6.4-1.4L100.4,37.1z"/>
	</g>
</g>
<path class="st1" d="M120.5,54.7H2.5v-43c0-5,4-9,9-9h118v43C129.5,50.7,125.4,54.7,120.5,54.7z"/>
</svg>
