<?xml version="1.0" encoding="utf-8"?>
<!-- Generator: Adobe Illustrator 24.3.0, SVG Export Plug-In . SVG Version: 6.00 Build 0)  -->
<svg version="1.1" id="Слой_1" xmlns="http://www.w3.org/2000/svg" xmlns:xlink="http://www.w3.org/1999/xlink" x="0px" y="0px"
	 viewBox="0 0 58 58" style="enable-background:new 0 0 58 58;" xml:space="preserve">
<style type="text/css">
	.st0{fill:#689F38;}
	.st1{fill:#FFFFFF;}
	.st2{fill:none;stroke:#FFFFFF;stroke-width:5;stroke-miterlimit:10;}
</style>
<rect x="4" y="4" class="st0" width="50" height="50"/>
<g>
	<g>
		<path class="st1" d="M19.51,16.15c1.97-0.33,4.88-0.58,8.13-0.58c4.01,0,6.83,0.61,8.76,2.14c1.62,1.28,2.5,3.17,2.5,5.65
			c0,3.41-2.45,5.79-4.78,6.62v0.13c1.88,0.76,2.93,2.54,3.62,5.02c0.84,3.05,1.65,6.56,2.18,7.61h-6.27
			c-0.42-0.78-1.09-2.95-1.86-6.28c-0.75-3.37-1.89-4.27-4.41-4.3h-1.82v10.58h-6.06V16.15z M25.58,27.75h2.4
			c3.04,0,4.85-1.54,4.85-3.88c0-2.47-1.7-3.73-4.49-3.75c-1.47,0-2.32,0.1-2.76,0.2V27.75z"/>
	</g>
</g>
<path class="st2" d="M46,55H3V12c0-4.97,4.03-9,9-9h43v43C55,50.97,50.97,55,46,55z"/>
</svg>
